<?xml version="1.0" encoding="utf-8"?>
<!-- Generator: Adobe Illustrator 18.0.0, SVG Export Plug-In . SVG Version: 6.00 Build 0)  -->
<!DOCTYPE svg PUBLIC "-//W3C//DTD SVG 1.1//EN" "http://www.w3.org/Graphics/SVG/1.1/DTD/svg11.dtd">
<svg version="1.1" id="图层_1" xmlns="http://www.w3.org/2000/svg" xmlns:xlink="http://www.w3.org/1999/xlink" x="0px" y="0px"
	 viewBox="0 0 464.3 186.5" enable-background="new 0 0 464.3 186.5" xml:space="preserve">
<g>
	<defs>
		<rect id="SVGID_1_" x="0.2" y="0.1" width="464.2" height="186.4"/>
	</defs>
	<clipPath id="SVGID_2_">
		<use xlink:href="#SVGID_1_"  overflow="visible"/>
	</clipPath>
	<g clip-path="url(#SVGID_2_)">
		<polygon fill="#616161" points="50.6,105.7 16.5,105.7 16.5,68.7 1,68.7 1,158.4 16.5,158.4 16.5,117.7 50.6,117.7 50.6,158.4 
			52.2,158.4 66.2,158.4 66.2,68.7 50.6,68.7 		"/>
		<path fill="#616161" d="M116.9,93.4c-3.2,16.2-7.6,32.7-12.7,47.4c-5.5-15.2-10.6-30.4-14.9-47.4l-0.3-1.2H73.1l0.5,1.9
			c5.7,22,14.2,45.2,21.9,62.9c-3.2,7-5.6,11.3-7.6,13.8c-2.1,2.5-3.5,3-5.4,3h-8.1l-0.6,10.1l1.3,0.3c2.1,0.5,5,1,8.4,1
			c0.1,0,0.1,0,0.2,0c5.1,0,9.7-1.6,13.8-5.8c4.3-4.3,8.4-11.1,13.6-22c6.9-14.3,13.9-34.9,21-63.4l0.5-1.9h-15.4L116.9,93.4z"/>
		<path fill="#616161" d="M165.5,146.6c-1-0.9-1.8-3.1-1.8-7.8v-35.8h15V92.2h-15l0-18.3h-12.3l-2.9,18.3h-9.5v10.9h9.4v38.7
			c0,6.6,1.8,11.2,5.1,14c3.3,2.8,7.8,3.6,12.8,3.6c4.1,0,8.2-0.5,11.1-1.2l1.2-0.3v-10h-7C168.4,148,166.5,147.6,165.5,146.6"/>
		<path fill="#616161" d="M213.4,101.5L213.4,101.5c4.1,0,7,1.5,9,4.1c2,2.6,3.2,6.7,3.2,11.9h-26.8c0.4-3.9,1.5-7.7,3.6-10.6
			C204.7,103.6,208.1,101.5,213.4,101.5 M214.1,90.8c-10.1,0-18,3.3-23.3,9.5c-5.3,6.1-7.8,14.8-7.8,25.2c0,11,2.4,19.6,7.6,25.5
			c5.2,5.9,13.2,8.8,23.5,8.8c0,0,0,0,0,0c8.9,0,17-1.4,23.9-3.4l1.4-0.4l-2.3-11l-1.6,0.4c-6.2,1.7-11.9,2.9-19.6,2.9
			c-6.9,0-11-2-13.6-5.6c-2.4-3.3-3.6-8.4-3.8-14.8H241v-1.6c0-1.8,0.2-4.6,0.2-5.9c0-8.6-1.8-16-6.2-21.3
			C230.5,93.7,223.6,90.8,214.1,90.8z"/>
		<path fill="#616161" d="M279.2,90.8c-3.3,0-6.3,1.1-9.1,3.3c-2.1,1.7-4.1,4-6.5,7l-0.9-8.9h-12.5v66.2h15.2v-43.1
			c3.5-4.6,6.1-7.7,8.2-9.6c2.2-2,3.6-2.6,5.1-2.6c1.6,0,3.5,0.3,5.6,0.9l1.6,0.4l0.3-1.6l2.1-10.4l-1.4-0.4
			C284.4,91.2,281.8,90.8,279.2,90.8"/>
		<path fill="#616161" d="M308.4,131.9L308.4,131.9c2.3-1.8,5.8-2.9,10.9-2.9c0,0,0,0,0,0h9.3V141c-4.6,4.6-8.9,7.8-14.2,7.8
			c-3.4,0-5.7-1-7.2-2.5c-1.5-1.5-2.3-3.7-2.3-6.6C305,136.2,306.2,133.7,308.4,131.9 M337.9,97.2c-4.2-4-10.7-6.4-19.9-6.4
			c-7.5,0-15.7,1.5-22.9,4.2l-1.4,0.5l3.4,10.6l1.5-0.6c6-2.4,12.2-3.6,17.6-3.6c5.1,0,8.1,1.1,9.9,3c1.8,1.9,2.7,5,2.7,9.7v4.3h-8
			c-9,0-16.6,1.6-22.2,5.1c-5.6,3.5-8.9,9.1-8.9,16.3c0,6,2.2,11,6.1,14.4c3.9,3.4,9.5,5.1,16,5.1c0,0,0,0,0,0
			c8.1,0,14.2-3.2,18.7-7l0.6,5.6h1.4h11.2v-45.8C343.8,106.8,342.1,101.2,337.9,97.2z"/>
		<g>
			<defs>
				<path id="SVGID_3_" d="M333.7,76.6L333.7,76.6c53.8,7.8,113,0.5,113.1,0.5c0,0,0,0,0,0l16.5-17.2
					C384.2,78.8,333.7,76.6,333.7,76.6 M399.6,113.8L399.6,113.8c3-1.8,5.9-3.6,8.8-5.5c-6.3-0.6-26.9-4.1-54.4-14.7
					C354,93.6,377.8,110.2,399.6,113.8z M338.5,80.4L338.5,80.4c33.4,11.2,81.3,12.3,90.5,12.4c4.1-3.4,7.9-6.7,11.4-9.9
					C388.9,88.7,338.5,80.4,338.5,80.4z M413.9,104.4c3.1-2.2,6-4.4,8.9-6.6c-9.9-0.4-51.8-2.2-79.7-12.8
					C343.1,85,368.4,100,413.9,104.4z"/>
			</defs>
			<clipPath id="SVGID_4_">
				<use xlink:href="#SVGID_3_"  overflow="visible"/>
			</clipPath>
			
				<linearGradient id="SVGID_5_" gradientUnits="userSpaceOnUse" x1="-39.7199" y1="394.4485" x2="-38.3265" y2="394.4485" gradientTransform="matrix(66.9753 7.4418 -3.2771 29.4933 4285.3188 -11258.5693)">
				<stop  offset="0" style="stop-color:#FFFFFF"/>
				<stop  offset="1" style="stop-color:#263D92"/>
			</linearGradient>
			<polygon clip-path="url(#SVGID_4_)" fill="url(#SVGID_5_)" points="327.7,113.1 461.7,128 469.2,60.4 335.2,45.5 			"/>
		</g>
		<g>
			<defs>
				<path id="SVGID_6_" d="M318.4,54.1L318.4,54.1c32,12.2,55.3,14.1,55.3,14.1c-37.5-11.7-59.4-24.3-59.4-24.3
					C315.4,47.3,316.8,50.7,318.4,54.1 M312.8,39.2L312.8,39.2c42.4,23.5,69.6,28.1,69.6,28.1c-46-19.7-72.5-40.5-72.5-40.5
					C310.6,30.8,311.5,34.9,312.8,39.2z M307.4,1.3L307.4,1.3L307.4,1.3c0,5.4,0.4,12,1.4,19.3l0.1,0.1c38,30.3,79.7,45.4,79.7,45.4
					C335.1,35.6,307.4,1.3,307.4,1.3z M320.4,58.3c1.7,3.3,3.6,6.5,5.8,9.6l0,0c21.1,3.7,40.1,2.1,40.1,2.1
					C339.2,65.6,324.1,59.7,320.4,58.3C320.4,58.3,320.4,58.3,320.4,58.3z"/>
			</defs>
			<clipPath id="SVGID_7_">
				<use xlink:href="#SVGID_6_"  overflow="visible"/>
			</clipPath>
			
				<linearGradient id="SVGID_8_" gradientUnits="userSpaceOnUse" x1="-33.933" y1="389.4268" x2="-31.7657" y2="389.4268" gradientTransform="matrix(-45.4589 -25.1137 23.4921 -42.5237 -10281.1357 15778.3438)">
				<stop  offset="0" style="stop-color:#FFFFFF"/>
				<stop  offset="1" style="stop-color:#96B421"/>
			</linearGradient>
			<polygon clip-path="url(#SVGID_7_)" fill="url(#SVGID_8_)" points="418.3,17.7 326.4,-33 277.7,55.2 369.6,106 			"/>
		</g>
	</g>
</g>
</svg>
