<svg width="100" height="24" viewBox="0 0 100 24" fill="none" xmlns="http://www.w3.org/2000/svg">
<path fill-rule="evenodd" clip-rule="evenodd" d="M22.8866 12.1393C22.8866 10.6922 22.6129 9.30879 22.1145 8.03794C21.6423 8.29365 21.1024 8.43902 20.5298 8.43902C18.6884 8.43902 17.1853 6.93588 17.1853 5.09454C17.1853 4.2479 17.5031 3.47275 18.0254 2.88235C16.2118 1.62902 14.0123 0.894775 11.642 0.894775C5.43409 0.894775 0.397461 5.93141 0.397461 12.1393C0.397461 18.3473 5.43409 23.3839 11.642 23.3839C17.85 23.3839 22.8866 18.3473 22.8866 12.1393ZM6.91574 8.49122V15.6864H6.64801C6.06235 15.6864 5.67749 15.7366 5.4767 15.8537C5.2759 15.9541 5.1755 16.1549 5.1755 16.4561C5.1755 16.7406 5.25917 16.9414 5.44323 17.0752C5.6273 17.2091 5.87829 17.276 6.22968 17.276H6.91574H9.24162C9.82728 17.276 10.2121 17.2258 10.3627 17.1087C10.5133 17.0083 10.597 16.7908 10.597 16.4729C10.597 16.1717 10.5133 15.9709 10.3293 15.8537C10.1452 15.7366 9.81054 15.6864 9.29182 15.6864H8.84003V11.0012C8.84003 10.2315 9.17469 9.5956 9.84401 9.07688C10.4966 8.55815 11.2663 8.30716 12.1364 8.30716C13.0065 8.30716 13.6591 8.54142 14.1109 9.00994C14.5627 9.46173 14.7802 10.1311 14.7802 11.0179V15.7031H14.3452C13.8432 15.7031 13.5085 15.7533 13.3245 15.8705C13.1404 15.9876 13.0567 16.1884 13.0567 16.4729C13.0567 16.7741 13.1237 16.9916 13.291 17.092C13.4416 17.2091 13.793 17.2593 14.3452 17.2593H17.1563C17.675 17.2593 18.0264 17.1924 18.2272 17.0752C18.428 16.9581 18.5284 16.7406 18.5284 16.4561C18.5284 16.1884 18.428 15.9876 18.244 15.8705C18.0599 15.7533 17.742 15.6864 17.3237 15.6864H16.7213V10.5996C16.7213 9.3446 16.3531 8.37409 15.6169 7.67131C14.8974 6.96852 13.8767 6.61713 12.5882 6.61713C11.9356 6.61713 11.2998 6.73426 10.6639 6.98525C10.0448 7.21951 9.42568 7.60437 8.80656 8.10636V7.33665C8.80656 7.20278 8.75636 7.08565 8.6225 7.00199C8.50537 6.93505 8.32131 6.88485 8.08704 6.88485H6.86554H6.26315C5.86156 6.88485 5.5771 6.95179 5.39303 7.06892C5.2257 7.18605 5.12531 7.38684 5.12531 7.67131C5.12531 7.9725 5.24244 8.19003 5.45996 8.30716C5.67749 8.42429 6.07909 8.49122 6.66474 8.49122H6.91574ZM30.4425 0.944275H31.7644V23.3999H30.4425V0.944275ZM47.1557 12.0056L40.6633 2.1499H38.9231V14.3148H40.4793V4.54272H40.5127L46.9549 14.3148H48.7454V2.1499H47.1892V12.0056H47.1557ZM53.4893 6.61726C53.1212 7.03559 52.8535 7.52085 52.6694 8.08977C52.4853 8.65869 52.3849 9.26108 52.3849 9.91366C52.3849 10.5662 52.4853 11.1686 52.6694 11.7208C52.8535 12.273 53.1212 12.7583 53.4893 13.1766C53.8742 13.5949 54.326 13.9128 54.8614 14.1471C55.3969 14.3814 56.016 14.4985 56.7188 14.4985C57.4383 14.4985 58.0574 14.3814 58.5929 14.1471C59.1283 13.9128 59.5801 13.5949 59.9483 13.1766C60.3164 12.7583 60.6008 12.273 60.7849 11.7208C60.969 11.1686 61.0694 10.5662 61.0694 9.91366C61.0694 9.26108 60.969 8.65869 60.7849 8.08977C60.6008 7.52085 60.3164 7.03559 59.9483 6.61726C59.5801 6.19894 59.1283 5.86428 58.5929 5.63002C58.0574 5.39576 57.4383 5.27863 56.7188 5.27863C56.0327 5.27863 55.3969 5.39576 54.8614 5.63002C54.3092 5.88101 53.8575 6.19894 53.4893 6.61726ZM54.761 12.3734C54.51 12.089 54.3092 11.7543 54.1586 11.336C54.0248 10.9176 53.9411 10.4491 53.9244 9.91366C53.9244 9.37821 53.9913 8.90968 54.1419 8.49136C54.2925 8.07303 54.4933 7.72164 54.7443 7.43718C54.9953 7.15272 55.2965 6.93519 55.6312 6.78459C55.9825 6.634 56.3339 6.56707 56.7188 6.56707C57.1037 6.56707 57.4718 6.634 57.8064 6.78459C58.1411 6.93519 58.4423 7.15272 58.6933 7.43718C58.9443 7.72164 59.1451 8.07303 59.3124 8.49136C59.463 8.90968 59.5299 9.37821 59.5299 9.91366C59.5299 10.4491 59.463 10.9176 59.3124 11.336C59.1618 11.7543 58.961 12.089 58.71 12.3734C58.459 12.6411 58.1578 12.8587 57.8232 13.0093C57.4718 13.1599 57.1204 13.2268 56.7355 13.2268C56.3507 13.2268 55.9825 13.1599 55.6479 13.0093C55.3132 12.8587 55.012 12.6579 54.761 12.3734ZM65.8534 5.49632V7.35368H65.8868C66.2382 6.63416 66.6733 6.11544 67.192 5.76405C67.7107 5.42939 68.3633 5.26206 69.1665 5.27879V6.80149C68.5809 6.80149 68.0789 6.88516 67.6605 7.03576C67.2422 7.18635 66.9076 7.43735 66.6566 7.73854C66.4056 8.03973 66.2215 8.40786 66.1044 8.85965C65.9872 9.29471 65.937 9.7967 65.937 10.3656V14.2811H64.4645V5.49632H65.8534ZM73.6639 12.8585C73.4464 12.7413 73.2623 12.5573 73.1285 12.3397C72.9779 12.1222 72.9109 11.8545 72.8775 11.5366H71.405C71.4384 12.0888 71.5556 12.5405 71.7564 12.9254C71.9739 13.3103 72.2416 13.6115 72.593 13.8457C72.9277 14.08 73.3293 14.2473 73.7811 14.3477C74.2328 14.4481 74.7014 14.4983 75.2034 14.4983C75.6552 14.4983 76.1069 14.4481 76.5587 14.3644C77.0105 14.2808 77.4288 14.1302 77.7802 13.8959C78.1484 13.6784 78.4328 13.3939 78.6671 13.0425C78.8846 12.6911 79.0017 12.2561 79.0017 11.7206C79.0017 11.3023 78.9181 10.9509 78.7508 10.6664C78.5834 10.382 78.3659 10.1477 78.0982 9.96366C77.8304 9.7796 77.5125 9.629 77.1611 9.51187L77.161 9.51184C76.8096 9.41145 76.4583 9.31107 76.0902 9.22741L75.9205 9.1868C75.6299 9.11706 75.3472 9.04923 75.0528 8.99315C74.7014 8.92622 74.4002 8.82582 74.1157 8.72542C73.8313 8.62502 73.597 8.49116 73.4297 8.32383C73.2623 8.1565 73.1619 7.9557 73.1619 7.70471C73.1619 7.48718 73.2289 7.28638 73.346 7.15252C73.4631 7.01865 73.6137 6.90152 73.7978 6.81786C73.9651 6.73419 74.1826 6.66726 74.4002 6.6338C74.6344 6.60033 74.852 6.5836 75.0695 6.5836C75.3205 6.5836 75.5547 6.61706 75.789 6.66726C76.0233 6.71746 76.2241 6.80113 76.4249 6.91826C76.6257 7.03539 76.7763 7.18598 76.9101 7.37005C77.0273 7.55411 77.1109 7.78837 77.1276 8.07283H78.6002C78.5667 7.53738 78.4496 7.10232 78.2488 6.73419C78.048 6.3828 77.797 6.09834 77.4623 5.88081C77.1277 5.68002 76.7428 5.52942 76.3245 5.44575C75.9061 5.36209 75.4376 5.31189 74.9356 5.31189C74.534 5.31189 74.1492 5.36209 73.7476 5.46249C73.346 5.54615 72.9946 5.69675 72.6767 5.89754C72.3587 6.09834 72.1077 6.34934 71.907 6.66726C71.7062 6.98519 71.6058 7.37005 71.6058 7.80511C71.6058 8.37403 71.7564 8.82582 72.0408 9.14374C72.3253 9.46167 72.6767 9.69593 73.1117 9.88C73.5468 10.0473 74.0153 10.1812 74.5173 10.2816C75.0193 10.382 75.4878 10.4824 75.9229 10.5995C76.3412 10.7166 76.7093 10.8672 76.9938 11.068C77.2783 11.2688 77.4288 11.5533 77.4288 11.9214C77.4288 12.1891 77.3619 12.4234 77.2281 12.5907C77.0942 12.7748 76.9269 12.9087 76.7093 12.9923C76.4918 13.076 76.2575 13.1429 76.0065 13.1764C75.7555 13.2099 75.5213 13.2266 75.287 13.2266C74.9858 13.2266 74.7014 13.1931 74.4169 13.1429C74.1492 13.076 73.8814 12.9923 73.6639 12.8585ZM89.2228 14.4975C88.8379 14.4975 88.5367 14.3971 88.3192 14.1796C88.1017 13.962 87.9846 13.6274 87.9846 13.1421C87.583 13.6107 87.1144 13.962 86.579 14.1796C86.0435 14.3971 85.4746 14.4975 84.8387 14.4975C84.4372 14.4975 84.0523 14.4473 83.7009 14.3636C83.3495 14.28 83.0316 14.1461 82.7639 13.9453C82.4961 13.7445 82.2786 13.4935 82.128 13.1756C81.9774 12.8577 81.8937 12.4895 81.8937 12.0378C81.8937 11.5358 81.9774 11.1342 82.1615 10.8162C82.3288 10.4983 82.5631 10.2306 82.8475 10.0465C83.132 9.84573 83.4499 9.69513 83.818 9.59473C84.1862 9.49434 84.5543 9.41067 84.9391 9.34374C85.3134 9.26576 85.6732 9.21686 86.0184 9.16993L86.0937 9.15968C86.4618 9.10948 86.7798 9.05928 87.0475 8.99235C87.332 8.92541 87.5495 8.80828 87.7001 8.67442C87.8674 8.52382 87.9343 8.32303 87.9343 8.0553C87.9343 7.73737 87.8674 7.48638 87.7503 7.28558C87.6332 7.10152 87.4826 6.95092 87.2818 6.85052C87.0977 6.75012 86.8802 6.68319 86.6459 6.64973C86.4116 6.61626 86.1774 6.59953 85.9431 6.59953C85.324 6.59953 84.8053 6.71666 84.387 6.95092C83.9686 7.18518 83.7511 7.62024 83.7176 8.27283H82.2451C82.2619 7.72064 82.379 7.26885 82.5965 6.90072C82.7973 6.5326 83.0818 6.21467 83.4164 5.98041C83.7678 5.74614 84.1527 5.57881 84.6045 5.47842C85.0563 5.37802 85.5248 5.32782 86.0101 5.32782C86.4116 5.32782 86.8132 5.36129 87.2148 5.41148C87.6164 5.46168 87.9678 5.57881 88.3025 5.76288C88.6204 5.93021 88.8881 6.1812 89.0722 6.49913C89.273 6.81706 89.3734 7.23538 89.3734 7.73737V12.272C89.3734 12.6067 89.3901 12.8577 89.4403 13.025C89.4738 13.1923 89.6244 13.2593 89.8419 13.2593C89.959 13.2593 90.1096 13.2258 90.2937 13.1756V14.28C90.026 14.4306 89.6746 14.4975 89.2228 14.4975ZM87.1646 10.0465C86.8634 10.1135 86.5455 10.1637 86.2276 10.1971C85.9317 10.2267 85.649 10.2694 85.3561 10.3135L85.2403 10.331C84.9057 10.3812 84.6045 10.4648 84.3368 10.582C84.069 10.6991 83.8515 10.8497 83.6842 11.0672C83.5168 11.2848 83.4332 11.5692 83.4332 11.9206C83.4332 12.1549 83.4834 12.3557 83.5838 12.523C83.6842 12.6903 83.8013 12.8242 83.9686 12.9246C84.1192 13.025 84.3033 13.1087 84.5208 13.1421C84.7383 13.1923 84.9559 13.2091 85.1734 13.2091C85.6587 13.2091 86.077 13.1421 86.4117 13.0083C86.763 12.8744 87.0308 12.7071 87.265 12.523C87.4826 12.3222 87.6499 12.1047 87.7503 11.8704C87.8507 11.6362 87.9009 11.4186 87.9009 11.2178V9.76206C87.7168 9.89593 87.4658 9.99633 87.1646 10.0465ZM97.1709 6.76739V5.49568H95.3972V2.85187H93.9247V5.49568H92.402V6.76739H93.9415V12.3729C93.9415 12.7745 93.9749 13.1092 94.0586 13.3602C94.1423 13.6112 94.2594 13.812 94.4267 13.9458C94.5941 14.0797 94.8116 14.1801 95.0793 14.2303C95.347 14.2805 95.665 14.314 96.0498 14.314H97.1709V13.0255H96.5016C96.2841 13.0255 96.1 13.0088 95.9494 12.9921C95.8156 12.9586 95.6984 12.9251 95.6148 12.8749C95.5311 12.8247 95.4809 12.7411 95.4474 12.6407C95.414 12.5403 95.3972 12.4064 95.3972 12.2391V6.76739H97.1709ZM40.1126 16.7085V22.1133H38.9246V16.7085H40.1126ZM42.0658 18.7476V18.2289H41.0283V22.1444H42.116V20.0863C42.116 19.6847 42.1829 19.4002 42.3168 19.2329C42.4506 19.0488 42.6682 18.9651 42.9526 18.9651C43.2036 18.9651 43.3877 19.0321 43.4881 19.1994C43.5885 19.35 43.6387 19.601 43.6387 19.9189V22.1277H44.7096V19.7181C44.7096 19.4671 44.6928 19.2496 44.6426 19.0488C44.6092 18.848 44.5255 18.6807 44.4251 18.5468C44.3247 18.3962 44.1741 18.2958 43.9901 18.2122C43.806 18.1285 43.5717 18.095 43.2873 18.095C43.053 18.095 42.8355 18.1452 42.618 18.2456C42.4004 18.346 42.2164 18.5134 42.0825 18.7476H42.0658ZM47.6868 18.2117V18.9144H46.9004V20.8555C46.9004 21.0395 46.9338 21.1567 47.0008 21.2236C47.0677 21.2905 47.1848 21.3073 47.3689 21.3073C47.4358 21.3073 47.486 21.3073 47.553 21.2905C47.5781 21.2905 47.6032 21.2863 47.6283 21.2822C47.6534 21.278 47.6785 21.2738 47.7036 21.2738V22.1104C47.6199 22.1272 47.5195 22.1439 47.4024 22.1439C47.2852 22.1606 47.1848 22.1606 47.0844 22.1606C46.9171 22.1606 46.7665 22.1439 46.6159 22.1272C46.4653 22.1104 46.3314 22.0602 46.2143 21.9933C46.0972 21.9264 46.0135 21.8427 45.9466 21.7089C45.8797 21.5917 45.8462 21.4244 45.8462 21.2403V18.9312H45.1936V18.2117H45.8462V17.0403H46.9171V18.2117H47.6868ZM50.0671 21.4082C49.7659 21.4082 49.5316 21.3245 49.3643 21.1739C49.197 21.0233 49.1133 20.7723 49.0966 20.4209H51.9244C51.9579 20.1197 51.9244 19.8353 51.8575 19.5508C51.7738 19.2831 51.6734 19.0321 51.5061 18.8146C51.3388 18.597 51.138 18.4297 50.887 18.2958C50.636 18.162 50.3515 18.095 50.0169 18.095C49.7157 18.095 49.4312 18.1452 49.197 18.2456C48.946 18.346 48.7452 18.4966 48.5611 18.6807C48.3938 18.8647 48.2599 19.0823 48.1595 19.3333C48.0591 19.5843 48.0089 19.852 48.0089 20.1532C48.0089 20.4544 48.0424 20.7388 48.1428 20.9898C48.2432 21.2408 48.377 21.4584 48.5444 21.6424C48.7284 21.8265 48.9292 21.9604 49.1802 22.0608C49.4312 22.1612 49.7157 22.2114 50.0169 22.2114C50.4519 22.2114 50.8368 22.111 51.1547 21.9102C51.4726 21.7094 51.7069 21.3747 51.8575 20.9062H50.9037C50.8703 21.0233 50.7699 21.1404 50.6193 21.2408C50.4687 21.358 50.2846 21.4082 50.0671 21.4082ZM49.9834 18.8982C50.2511 18.8982 50.4352 18.9819 50.5691 19.1157C50.7029 19.2496 50.7866 19.4671 50.8368 19.7181H49.0798C49.0798 19.6512 49.0966 19.5675 49.13 19.4671C49.1635 19.3835 49.2137 19.2831 49.2806 19.1994C49.3475 19.1157 49.4312 19.0488 49.5483 18.9819C49.6655 18.9317 49.8161 18.8982 49.9834 18.8982ZM53.5848 18.1953V18.9148H53.6015C53.6517 18.7977 53.7187 18.6806 53.8023 18.5802C53.886 18.4798 53.9864 18.3961 54.1035 18.3124C54.2207 18.2455 54.3378 18.1786 54.4549 18.1451C54.5888 18.1117 54.7227 18.0782 54.8565 18.0782C54.9234 18.0782 55.0071 18.0949 55.0908 18.1117V19.1156C55.0641 19.1067 55.0327 19.1026 54.9991 19.0981C54.9695 19.0942 54.9381 19.09 54.9067 19.0822C54.8733 19.0822 54.8398 19.078 54.8063 19.0738C54.7729 19.0696 54.7394 19.0654 54.7059 19.0654C54.5051 19.0654 54.3378 19.0989 54.2039 19.1658C54.0701 19.2328 53.9529 19.3164 53.8693 19.4336C53.7856 19.5507 53.7354 19.6846 53.6852 19.8351C53.6517 19.9857 53.635 20.1531 53.635 20.3204V22.0941H52.5474V18.1786H53.5848V18.1953ZM56.6673 18.7476V18.2289H55.6298V22.1444H56.7175V20.0863C56.7175 19.6847 56.7844 19.4002 56.9183 19.2329C57.0521 19.0488 57.2697 18.9651 57.5541 18.9651C57.8051 18.9651 57.9892 19.0321 58.0896 19.1994C58.19 19.35 58.2402 19.601 58.2402 19.9189V22.1277H59.3111V19.7181C59.3111 19.4671 59.2943 19.2496 59.2441 19.0488C59.2107 18.848 59.127 18.6807 59.0266 18.5468C58.9262 18.3962 58.7756 18.2958 58.5916 18.2122C58.4075 18.1285 58.1732 18.095 57.8888 18.095C57.6545 18.095 57.437 18.1452 57.2195 18.2456C57.0019 18.346 56.8179 18.5134 56.684 18.7476H56.6673ZM60.2837 18.7642C60.4008 18.5969 60.5347 18.463 60.702 18.3626C60.8693 18.2622 61.0701 18.1953 61.2877 18.1451C61.5052 18.0949 61.7227 18.0782 61.9403 18.0782C62.141 18.0782 62.3418 18.0949 62.5426 18.1117C62.7434 18.1451 62.9275 18.1953 63.0948 18.279C63.2622 18.3626 63.396 18.4798 63.4964 18.6136C63.5968 18.7642 63.647 18.9483 63.647 19.1826V21.224C63.647 21.4081 63.6638 21.5754 63.6805 21.726C63.6972 21.8933 63.7307 22.0104 63.7809 22.0941H62.6932C62.6888 22.0763 62.6843 22.0596 62.6799 22.0435L62.6681 22.0021L62.6681 22.0021C62.6598 21.9728 62.6514 21.9435 62.643 21.91C62.6347 21.8766 62.6305 21.8431 62.6263 21.8097C62.6221 21.7762 62.6179 21.7427 62.6096 21.7092C62.4422 21.8933 62.2415 22.0104 62.0072 22.0774C61.7729 22.1443 61.5387 22.1778 61.2877 22.1778C61.1036 22.1778 60.9195 22.161 60.7689 22.1108C60.6016 22.0606 60.4677 21.9937 60.3506 21.8933C60.2335 21.7929 60.1331 21.6758 60.0662 21.5252C59.9992 21.3746 59.9658 21.2073 59.9658 21.0065C59.9658 20.7889 59.9992 20.6049 60.0829 20.4543C60.1666 20.3037 60.267 20.1865 60.3841 20.1029C60.5179 20.0192 60.6518 19.9523 60.8024 19.9188C60.9697 19.8686 61.1203 19.8351 61.2877 19.8184C61.455 19.785 61.6056 19.7682 61.7729 19.7515C61.9235 19.7348 62.0741 19.718 62.1912 19.6846C62.3084 19.6511 62.4088 19.6176 62.4757 19.5507C62.5426 19.4838 62.5761 19.4001 62.5761 19.2997C62.5761 19.1826 62.5594 19.0989 62.5259 19.0152C62.4924 18.9483 62.4422 18.8981 62.3753 18.8646C62.3084 18.8312 62.2414 18.7977 62.1578 18.7977C62.0741 18.781 61.9904 18.781 61.89 18.781C61.6725 18.781 61.5052 18.8312 61.3881 18.9148C61.2709 18.9985 61.1873 19.1491 61.1705 19.3666H60.0996C60.0996 19.1491 60.1666 18.9316 60.2837 18.7642ZM62.35 20.3008L62.3 20.312C62.2624 20.3204 62.2247 20.3288 62.1912 20.3371L62.1601 20.3435C62.09 20.3579 62.0279 20.3706 61.9403 20.3706C61.8566 20.3873 61.7729 20.4041 61.6725 20.4041C61.5889 20.4208 61.5052 20.4375 61.4383 20.471C61.3636 20.4859 61.3022 20.5276 61.2542 20.5601L61.2375 20.5714C61.1782 20.6159 61.1451 20.6604 61.1034 20.7165L61.0869 20.7387C61.0534 20.8057 61.0367 20.8893 61.0367 20.9897C61.0367 21.0901 61.0534 21.1738 61.0869 21.2407C61.1203 21.3077 61.1705 21.3579 61.2375 21.3913C61.3044 21.4248 61.3713 21.4583 61.455 21.475C61.5387 21.4917 61.6223 21.5084 61.706 21.5084C61.9235 21.5084 62.0909 21.475 62.208 21.4081C62.3251 21.3411 62.4088 21.2575 62.4757 21.1571C62.5259 21.0567 62.5594 20.9563 62.5761 20.8559C62.5928 20.7555 62.5928 20.6718 62.5928 20.6216V20.22C62.5594 20.2284 62.5301 20.2409 62.5008 20.2535C62.4715 20.266 62.4422 20.2786 62.4088 20.2869L62.3917 20.2911L62.3728 20.2956L62.35 20.3008ZM66.6299 18.9144V18.2117H65.8602V17.0403H64.7892V18.2117H64.1367V18.9312H64.7892V21.2403C64.7892 21.4244 64.8227 21.5917 64.8896 21.7089C64.9566 21.8427 65.0402 21.9264 65.1574 21.9933C65.2578 22.0602 65.3916 22.1104 65.5422 22.1272C65.6928 22.1439 65.8434 22.1606 66.0108 22.1606C66.1112 22.1606 66.2115 22.1606 66.3287 22.1439C66.4326 22.1439 66.5102 22.1307 66.5965 22.1161L66.6299 22.1104V21.2738C66.6048 21.2738 66.5797 21.278 66.5546 21.2822C66.5295 21.2863 66.5044 21.2905 66.4793 21.2905C66.4123 21.3073 66.3621 21.3073 66.2952 21.3073C66.1112 21.3073 65.994 21.2905 65.9271 21.2236C65.8769 21.1567 65.8434 21.0395 65.8434 20.8555V18.9144H66.6299ZM67.1845 17.5766V16.6898H68.2554V17.5766H67.1845ZM68.2722 18.1957V22.1112H67.2012V18.1957H68.2722ZM69.5358 18.6471C69.3684 18.8312 69.2346 19.0487 69.1342 19.2997C69.0338 19.5507 68.9836 19.8352 68.9836 20.1531C68.9836 20.471 69.0338 20.7555 69.1342 21.0065C69.2178 21.2575 69.3517 21.475 69.5358 21.659C69.7198 21.8264 69.9206 21.9602 70.1716 22.0606C70.4226 22.161 70.7071 22.2112 71.0083 22.2112C71.3095 22.2112 71.5939 22.161 71.8449 22.0606C72.0959 21.977 72.2967 21.8431 72.4808 21.659C72.6481 21.475 72.782 21.2575 72.8824 21.0065C72.9828 20.7555 73.033 20.471 73.033 20.1531C73.033 19.8352 72.9828 19.5507 72.8824 19.2997C72.7987 19.0487 72.6648 18.8312 72.4808 18.6471C72.3134 18.463 72.0959 18.3292 71.8449 18.2288C71.5939 18.1284 71.3262 18.0782 71.0083 18.0782C70.6903 18.0782 70.4226 18.1284 70.1716 18.2288C69.9206 18.3292 69.7198 18.463 69.5358 18.6471ZM70.2553 21.0232C70.1884 20.9061 70.1382 20.7722 70.1047 20.6216C70.0712 20.471 70.0545 20.3037 70.0545 20.1698C70.0545 20.0025 70.0712 19.8519 70.1047 19.7013C70.1214 19.5507 70.1884 19.4168 70.2553 19.2997C70.3222 19.1826 70.4226 19.0822 70.5397 19.0152C70.6569 18.9316 70.8075 18.8981 70.9915 18.8981C71.1756 18.8981 71.3262 18.9483 71.4433 19.0152C71.5772 19.0822 71.6776 19.1826 71.7445 19.2997C71.8115 19.4168 71.8617 19.5507 71.8951 19.7013C71.9286 19.8686 71.9453 20.0192 71.9453 20.1698C71.9453 20.3204 71.9286 20.471 71.8951 20.6216C71.8617 20.7722 71.8115 20.9061 71.7445 21.0232C71.6609 21.1403 71.5605 21.2407 71.4433 21.3077C71.3262 21.3746 71.1756 21.4081 70.9915 21.4081C70.8075 21.4081 70.6569 21.3746 70.5397 21.3077C70.4226 21.2407 70.3222 21.1403 70.2553 21.0232ZM74.7677 18.2289V18.7476H74.7845C74.9183 18.5134 75.1024 18.346 75.3199 18.2456C75.5374 18.1452 75.755 18.095 75.9892 18.095C76.2737 18.095 76.5079 18.1285 76.692 18.2122C76.8761 18.2958 77.0267 18.3962 77.1271 18.5468C77.2275 18.6807 77.3111 18.848 77.3446 19.0488C77.3781 19.2496 77.4115 19.4671 77.4115 19.7181V22.1277H76.3574V19.9189C76.3574 19.601 76.3072 19.35 76.2068 19.1994C76.1064 19.0321 75.9223 18.9651 75.6713 18.9651C75.3868 18.9651 75.1693 19.0488 75.0355 19.2329C74.9016 19.4002 74.8347 19.6847 74.8347 20.0863V22.1444H73.747V18.2289H74.7677ZM78.8081 18.3626C78.6408 18.463 78.5069 18.5969 78.3898 18.7642C78.2726 18.9316 78.2057 19.1491 78.189 19.3666H79.2933C79.3268 19.1491 79.3937 18.9985 79.5109 18.9148C79.628 18.8312 79.7953 18.781 80.0129 18.781C80.1133 18.781 80.1969 18.781 80.2806 18.7977C80.3643 18.7977 80.4312 18.8312 80.4981 18.8646C80.5483 18.8981 80.6152 18.9483 80.6487 19.0152C80.6822 19.0989 80.6989 19.1826 80.6989 19.2997C80.6989 19.4001 80.6654 19.4838 80.5985 19.5507C80.5316 19.6176 80.4312 19.6511 80.3141 19.6846C80.1969 19.718 80.0463 19.7348 79.8957 19.7515C79.7284 19.7682 79.5778 19.785 79.4105 19.8184C79.2431 19.8351 79.0925 19.8686 78.9252 19.9188C78.7746 19.9523 78.624 20.0192 78.5069 20.1029C78.3898 20.1865 78.2894 20.3037 78.2057 20.4543C78.122 20.6049 78.0886 20.7889 78.0886 21.0065C78.0886 21.2073 78.122 21.3746 78.189 21.5252C78.2559 21.6758 78.3563 21.7929 78.4734 21.8933C78.5906 21.9937 78.7244 22.0606 78.8917 22.1108C79.0423 22.161 79.2264 22.1778 79.4105 22.1778C79.6615 22.1778 79.8957 22.1443 80.13 22.0774C80.3643 22.0104 80.565 21.8933 80.7324 21.7092C80.7407 21.7427 80.7449 21.7762 80.7491 21.8096C80.7533 21.8431 80.7575 21.8766 80.7658 21.91C80.7742 21.9435 80.7826 21.9728 80.7909 22.0021C80.7993 22.0314 80.8077 22.0606 80.816 22.0941H81.9037C81.8535 22.0104 81.82 21.8933 81.8033 21.726C81.7866 21.5754 81.7698 21.4081 81.7698 21.224V19.1826C81.7698 18.9483 81.7029 18.7642 81.6025 18.6136C81.5021 18.4798 81.3682 18.3626 81.2009 18.279C81.0336 18.1953 80.8495 18.1451 80.6487 18.1117C80.4479 18.0949 80.2471 18.0782 80.0463 18.0782C79.8288 18.0782 79.6113 18.0949 79.3937 18.1451C79.1762 18.1953 78.9754 18.2622 78.8081 18.3626ZM80.4063 20.312C80.4439 20.3036 80.4815 20.2953 80.5148 20.2869C80.541 20.2804 80.5647 20.2713 80.5897 20.2616C80.6287 20.2466 80.6712 20.2302 80.7324 20.22V20.6216C80.7324 20.6718 80.7324 20.7555 80.7156 20.8559C80.7156 20.9563 80.6654 21.0567 80.6152 21.1571C80.5483 21.2575 80.4647 21.3411 80.3475 21.4081C80.2304 21.475 80.0631 21.5084 79.8455 21.5084C79.7619 21.5084 79.6782 21.4917 79.5945 21.475C79.5109 21.4583 79.4439 21.4248 79.377 21.3913C79.3101 21.3579 79.2599 21.3077 79.2264 21.2407C79.1929 21.1738 79.1762 21.0901 79.1762 20.9897C79.1762 20.8893 79.1929 20.8057 79.2264 20.7387C79.2599 20.6718 79.3101 20.6216 79.3603 20.5714L79.377 20.5601C79.425 20.5276 79.4864 20.4859 79.5611 20.471C79.628 20.4375 79.7117 20.4208 79.7953 20.4041C79.879 20.4041 79.9627 20.3873 80.0463 20.3706C80.13 20.3706 80.2137 20.3539 80.2973 20.3371C80.3308 20.3288 80.3684 20.3204 80.4061 20.312L80.4063 20.312ZM83.7083 16.7061V22.1109H82.6374V16.7061H83.7083ZM87.9663 22.1109V16.7061H86.7783V22.1109H87.9663ZM89.9214 18.2289V18.7476H89.9381C90.072 18.5134 90.256 18.346 90.4736 18.2456C90.6911 18.1452 90.9086 18.095 91.1429 18.095C91.4273 18.095 91.6616 18.1285 91.8456 18.2122C92.0297 18.2958 92.1803 18.3962 92.2807 18.5468C92.3811 18.6807 92.4647 18.848 92.4982 19.0488C92.5317 19.2496 92.5651 19.4671 92.5651 19.7181V22.1277H91.4942V19.9189C91.4942 19.601 91.444 19.35 91.3437 19.1994C91.2433 19.0321 91.0592 18.9651 90.8082 18.9651C90.5238 18.9651 90.3062 19.0488 90.1724 19.2329C90.0385 19.4002 89.9716 19.6847 89.9716 20.0863V22.1444H88.884V18.2289H89.9214ZM94.8231 19.0152C94.9402 18.9316 95.0908 18.8981 95.2581 18.8981C95.7266 18.8981 95.9944 19.1324 96.0948 19.5674H97.149C97.1322 19.3164 97.0653 19.0989 96.9649 18.9148C96.8478 18.7308 96.7139 18.5634 96.5466 18.4463C96.3625 18.3124 96.1784 18.2288 95.9609 18.1618C95.7434 18.1117 95.5259 18.0782 95.2916 18.0782C94.9737 18.0782 94.6892 18.1284 94.4382 18.2288C94.1872 18.3459 93.9697 18.4965 93.8024 18.6806C93.635 18.8646 93.5012 19.0822 93.4175 19.3499C93.3338 19.6009 93.2836 19.8853 93.2836 20.1865C93.2836 20.471 93.3338 20.7387 93.4342 20.9897C93.5346 21.2407 93.6685 21.4583 93.8358 21.6256C94.0031 21.8096 94.2207 21.9435 94.4549 22.0439C94.6892 22.1443 94.9569 22.1945 95.2581 22.1945C95.7768 22.1945 96.1952 22.0439 96.5298 21.7762C96.8645 21.5084 97.0653 21.1069 97.1322 20.5881H96.0948C96.0613 20.8391 95.9609 21.0232 95.827 21.1738C95.6932 21.3244 95.4924 21.3913 95.2414 21.3913C95.0741 21.3913 94.9402 21.3579 94.8231 21.2742C94.7059 21.2073 94.6055 21.1069 94.5386 20.9897C94.4717 20.8726 94.4215 20.7387 94.388 20.5881C94.3545 20.4375 94.3378 20.2869 94.3378 20.1531C94.3378 20.0192 94.3545 19.8686 94.388 19.718C94.4215 19.5842 94.4717 19.4336 94.5386 19.3164C94.6055 19.1993 94.7059 19.0989 94.8231 19.0152ZM98.9786 20.9563V22.1279H97.7902V20.9563H98.9786ZM20.5294 2.18182C22.1331 2.18182 23.4423 3.47462 23.4423 5.0947C23.4423 6.69842 22.1331 8.00757 20.5294 8.00757C18.9257 8.00757 17.6165 6.69842 17.6165 5.0947C17.6165 3.49098 18.9257 2.18182 20.5294 2.18182Z" fill="#808080"/>
</svg>
