<svg width="80" height="20" viewBox="0 0 80 20" fill="none" xmlns="http://www.w3.org/2000/svg">
<path fill-rule="evenodd" clip-rule="evenodd" d="M58.4736 4.1748H79.7939C79.2233 5.43006 79.1282 5.69632 78.5576 6.95157C76.5226 6.95157 73.9741 6.95157 71.939 6.95157C70.1513 10.8695 67.926 15.7573 66.1573 19.6562C63.1523 19.6562 61.9731 19.6562 58.9681 19.6562C60.7559 15.7383 62.9811 10.8505 64.7499 6.95157H58.4927V4.1748H58.4736Z" fill="#808080"/>
<path fill-rule="evenodd" clip-rule="evenodd" d="M43.3096 11.9139C42.8912 11.9139 42.4537 11.9139 42.0353 11.9139C47.2465 8.01503 52.4387 4.09713 57.6499 0.198242C57.2124 0.198242 56.794 0.198242 56.3756 0.198242C51.1644 4.09713 45.9722 8.01503 40.761 11.9139C40.3426 11.9139 39.9052 11.9139 39.4868 11.9139C44.679 8.01503 49.8901 4.09713 55.1013 0.198242C54.6829 0.198242 54.2645 0.198242 53.8271 0.198242C48.6159 4.09713 43.4237 8.01503 38.2125 11.9139C37.7751 11.9139 37.3567 11.9139 36.9192 11.9139C42.1304 8.01503 47.3226 4.09713 52.5338 0.198242C52.0963 0.198242 51.6779 0.198242 51.2405 0.198242L36.5579 11.2102L35.6259 11.9139C34.4468 14.5005 33.2866 17.0871 32.1074 19.6546H36.5579H41.0463C42.2255 17.0681 43.3857 14.5005 44.5648 11.9139L58.4677 1.47251V0.521564L43.3096 11.9139Z" fill="#808080"/>
<path fill-rule="evenodd" clip-rule="evenodd" d="M36.574 10.2037L41.0244 6.85635C40.3968 5.96246 39.7691 5.06857 39.1415 4.17468H36.5549H30.1836C31.8382 6.53303 33.4929 8.89138 35.1475 11.2497L36.574 10.2037Z" fill="#808080"/>
<path fill-rule="evenodd" clip-rule="evenodd" d="M7.03701 4.1748C4.69768 9.34796 2.33933 14.5021 0 19.6753C3.00499 19.6753 3.80379 19.6753 6.78976 19.6753C7.96894 17.0887 9.12909 14.5211 10.3083 11.9345C12.1151 11.9345 14.2071 11.9345 16.014 11.9345C14.8348 14.5211 13.6556 17.1077 12.4954 19.7133C15.4814 19.7133 16.2992 19.7133 19.2852 19.7133C21.6436 14.5401 23.9829 9.36698 26.3412 4.19382C23.3553 4.19382 22.5374 4.19382 19.5515 4.19382C18.6576 6.15278 17.7637 8.11173 16.8888 10.0707C15.082 10.0707 12.9899 10.0707 11.1831 10.0707C12.077 8.11173 12.9709 6.15278 13.8458 4.19382C10.8218 4.1748 10.042 4.1748 7.03701 4.1748Z" fill="#808080"/>
</svg>
