<svg width="108" height="24" viewBox="0 0 108 24" fill="none" xmlns="http://www.w3.org/2000/svg">
<path d="M105.324 14.7467C105.984 14.4483 106.517 14.2351 106.88 13.7235C107.711 12.487 107.477 8.94833 106.88 7.88246C105.793 5.94256 102.296 6.43287 99.0136 6.43287H92.7036C92.6396 6.43287 92.6396 6.51814 92.6609 6.58209V20.0761H96.3276V16.5587H99.6957C100.826 16.5587 102.254 16.3242 103 16.6653C103.959 17.1129 103.576 18.7118 103.661 20.0761H107.285C107.349 17.5819 107.519 14.9812 105.324 14.7467ZM103.512 12.8281C103.021 13.3611 101.124 13.1479 100.058 13.1479H96.3276V9.99289C96.3276 9.92894 96.3276 9.84367 96.3702 9.84367H100.037C101.252 9.84367 102.893 9.60918 103.448 10.0995C103.917 10.5045 104.002 12.2952 103.512 12.8281ZM78.1011 6.51814C77.2697 6.24101 75.1806 6.26233 74.4345 6.51814C73.4326 6.85922 73.0275 8.1809 72.5159 9.20414C71.3221 11.613 70.107 14.4696 68.9985 16.6013H61.5587V6.43287H57.9347C57.8708 6.43287 57.8708 6.51814 57.8921 6.58209V11.5917C57.8921 13.2971 57.7215 15.0238 57.8921 16.6013C58.0413 18.0509 58.9366 19.2234 60.0665 19.7563C61.4308 20.3958 64.0315 20.0548 66.2699 20.0548H71.4287C71.8551 19.3086 72.1109 18.392 72.5585 17.6885H80.0623C80.446 18.4986 80.7445 19.3939 81.2561 20.0548H85.1785C83.6223 16.6866 81.8743 13.1479 80.2115 9.60918C79.7212 8.58594 79.103 6.88053 78.1011 6.51814ZM73.9015 14.7467C74.6477 12.9987 75.4577 11.2933 76.2252 9.58786C77.0565 11.2719 77.8026 13.0413 78.6553 14.7041C77.1844 14.8107 75.479 14.7041 73.9015 14.7467ZM45.7837 6.43287C45.0163 6.4755 43.8438 6.64604 43.1404 7.00844C40.9447 8.13827 41.2858 11.5491 41.2858 14.9599C41.2858 16.4947 41.4776 17.8591 42.1171 18.6904C43.3535 20.2679 46.338 20.0761 48.8321 20.0761H55.9096V16.8145H50.5375C48.9601 16.8145 46.3806 17.1129 45.5706 16.3455C44.9524 15.7486 45.0589 14.363 45.0589 13.2545C45.0589 12.0181 45.0376 10.7603 45.6772 10.2061C46.5512 9.45995 49.1306 9.73708 50.836 9.73708H55.9096V6.43287C52.4561 6.58209 49.1732 6.21969 45.7837 6.43287ZM39.0261 6.43287H27.3015C27.2588 6.45418 27.2375 6.4755 27.2588 6.53945C27.2588 6.56077 27.2375 6.64604 27.2588 6.64604C29.9022 7.8185 32.1192 9.67313 34.0165 11.7622C35.8711 13.7874 37.6191 16.3455 37.7897 19.8629C39.218 19.5005 39.0261 17.7098 39.0261 15.7273V6.43287ZM23.3151 9.73708C23.2511 9.7584 23.2511 9.82235 23.2725 9.8863V20.0761H36.8517C36.8943 18.3707 36.0416 16.985 35.1463 15.8978C32.439 12.6149 28.4739 10.4192 23.3151 9.73708ZM17.3675 20.0761H20.9915V9.77972H17.3675V20.0761ZM17.3675 6.43287H20.9915V3.0647H17.3675V6.43287ZM14.2338 12.3591C13.168 11.5704 11.2067 11.6343 9.22422 11.5278C8.15834 11.4851 4.29987 11.8262 3.93748 10.9735C3.31927 9.43864 5.32311 9.73708 6.58085 9.73708H14.8947V6.43287C11.4199 6.56077 7.73199 6.28364 4.47041 6.43287C3.04214 6.49682 1.48596 6.8379 0.846438 7.66928C-0.134168 8.96965 -0.0275801 12.7429 0.953025 13.8087C1.84836 14.7893 4.02275 14.9172 5.7921 14.9386C6.62348 14.9599 7.62541 14.9386 8.77655 14.9386C10.2475 14.9386 12.2087 14.7893 11.5265 16.3242C11.3133 16.8785 10.0982 16.8145 9.16027 16.8145H0.48404V20.0761H7.66804C9.82111 20.0761 12.8269 20.3319 14.2338 19.3939C15.8753 18.3067 15.7687 13.5103 14.2338 12.3591ZM90.4439 6.43287H86.7773V20.0761H90.4439V6.43287Z" fill="#808080"/>
</svg>
